<svg width="24" height="44" viewBox="0 0 24 44" fill="none" xmlns="http://www.w3.org/2000/svg">
<path fill-rule="evenodd" clip-rule="evenodd" d="M3.77212 8.39943C3.28495 8.77834 3 9.36096 3 9.97814V20C3 20.5304 3.21071 21.0391 3.58579 21.4142C3.96086 21.7893 4.46957 22 5 22H9V17C9 15.8954 9.89543 15 11 15H13C14.1046 15 15 15.8954 15 17V22H19C19.5304 22 20.0391 21.7893 20.4142 21.4142C20.7893 21.0391 21 20.5304 21 20V9.97814C21 9.36096 20.7151 8.77835 20.2279 8.39943L13.2279 2.95499C12.5057 2.39326 11.4943 2.39326 10.7721 2.95499L3.77212 8.39943Z" fill="#323232"/>
<path d="M3.77212 8.39943L3.15818 7.61008L3.15818 7.61008L3.77212 8.39943ZM3.58579 21.4142L2.87868 22.1213L2.87868 22.1213L3.58579 21.4142ZM9 22V23C9.55228 23 10 22.5523 10 22H9ZM15 22H14C14 22.5523 14.4477 23 15 23V22ZM20.4142 21.4142L21.1213 22.1213L21.1213 22.1213L20.4142 21.4142ZM20.2279 8.39943L20.8418 7.61008L20.8418 7.61008L20.2279 8.39943ZM13.2279 2.95499L13.8418 2.16564L13.8418 2.16564L13.2279 2.95499ZM10.7721 2.95499L11.3861 3.74434L11.3861 3.74434L10.7721 2.95499ZM3 9.97814H4C4 9.66955 4.14247 9.37824 4.38606 9.18878L3.77212 8.39943L3.15818 7.61008C2.42742 8.17845 2 9.05237 2 9.97814H3ZM3 20H4V9.97814H3H2V20H3ZM3.58579 21.4142L4.29289 20.7071C4.10536 20.5195 4 20.2652 4 20H3H2C2 20.7956 2.31607 21.5587 2.87868 22.1213L3.58579 21.4142ZM5 22V21C4.73478 21 4.48043 20.8946 4.29289 20.7071L3.58579 21.4142L2.87868 22.1213C3.44129 22.6839 4.20435 23 5 23V22ZM9 22V21H5V22V23H9V22ZM9 22H10V17H9H8V22H9ZM9 17H10C10 16.4477 10.4477 16 11 16V15V14C9.34315 14 8 15.3431 8 17H9ZM11 15V16H13V15V14H11V15ZM13 15V16C13.5523 16 14 16.4477 14 17H15H16C16 15.3431 14.6569 14 13 14V15ZM15 17H14V22H15H16V17H15ZM19 22V21H15V22V23H19V22ZM20.4142 21.4142L19.7071 20.7071C19.5196 20.8946 19.2652 21 19 21V22V23C19.7957 23 20.5587 22.6839 21.1213 22.1213L20.4142 21.4142ZM21 20H20C20 20.2652 19.8946 20.5195 19.7071 20.7071L20.4142 21.4142L21.1213 22.1213C21.6839 21.5587 22 20.7956 22 20H21ZM21 9.97814H20V20H21H22V9.97814H21ZM20.2279 8.39943L19.6139 9.18878C19.8575 9.37824 20 9.66954 20 9.97814H21H22C22 9.05237 21.5726 8.17845 20.8418 7.61008L20.2279 8.39943ZM13.2279 2.95499L12.6139 3.74434L19.6139 9.18878L20.2279 8.39943L20.8418 7.61008L13.8418 2.16564L13.2279 2.95499ZM10.7721 2.95499L11.3861 3.74434C11.7472 3.46348 12.2528 3.46348 12.6139 3.74434L13.2279 2.95499L13.8418 2.16564C12.7585 1.32305 11.2415 1.32304 10.1582 2.16563L10.7721 2.95499ZM3.77212 8.39943L4.38606 9.18878L11.3861 3.74434L10.7721 2.95499L10.1582 2.16563L3.15818 7.61008L3.77212 8.39943Z" fill="#323232"/>
<path d="M15.8657 34.6514V37.876H8.09619V34.6514H15.8657ZM9.08643 35.4258V37.1016H14.8882V35.4258H9.08643ZM16.5259 27.6943V28.4688H7.37256V27.6943H11.4858V26.5771H12.4761V27.6943H16.5259ZM11.981 28.9258C14.3169 28.9385 15.6372 29.4717 15.6372 30.5254C15.6372 31.5156 14.501 32.0425 12.4761 32.1123V32.9883H17.1226V33.7881H6.83936V32.9883H11.4858V32.1123C9.45459 32.0425 8.31201 31.5156 8.31201 30.5254C8.31201 29.4717 9.64502 28.9385 11.981 28.9258ZM11.981 29.624C10.3179 29.6367 9.36572 29.9414 9.37842 30.5254C9.36572 31.0967 10.3179 31.4268 11.981 31.4268C13.6313 31.4268 14.5835 31.0967 14.5835 30.5254C14.5835 29.9414 13.6313 29.6367 11.981 29.624Z" fill="#323232"/>
</svg>
